<?xml version="1.0" encoding="utf-8"?>
<!-- Generator: Adobe Illustrator 27.9.5, SVG Export Plug-In . SVG Version: 9.03 Build 54986)  -->
<svg version="1.1" id="圖層_1" xmlns="http://www.w3.org/2000/svg" xmlns:xlink="http://www.w3.org/1999/xlink" x="0px" y="0px"
	 viewBox="0 0 411.71 242.74" style="enable-background:new 0 0 411.71 242.74;" xml:space="preserve">
<style type="text/css">
	.st0{fill:#778899;}
</style>
<g>
	<path class="st0" d="M359.5,166.35c0-0.98,0-1.85,0-2.76c2-1.15,4.01-2.32,5.99-3.46c2.92,0.66,4.7,2.46,5.98,5.24
		c0.39,2.84-0.56,5.8-1.29,8.91c0.63,0.5,1,1.17-0.23,2.08c11.98,11.82,24.32,23.17,37.47,33.51c0,1.24,0,2.32,0,3.33
		c-0.34,0.34-0.61,0.61-0.88,0.88c-0.18,0.16-0.28-0.04-0.54-0.17c-2.53-1.32-4.91-2.8-7.05-4.75c-1.92-1.75-4.15-3.27-6.36-4.55
		c-2.64-1.51-4.63-3.73-7.12-5.37c-3.83-2.51-6.84-6.01-10.07-9.23c-2.39-2.38-4.77-4.77-7.16-7.16c-1.8,0.57-1.01,2.18-1.38,3.55
		c-2.57,1.19-4.82,3.13-7.53,4.94c1.13,1.31,0.52,3.15,1.59,4.55c-0.35,0.52-1.24,0.92-0.72,1.54c-1.07,1.07-2.01,2.03-3.22,3.25
		c-1.72-0.52-2.07-2.72-3.1-4.47c-3.11,3.33-7.02,6.03-7.94,11.32c2.1,3.89,5.86,7.06,7.98,11.67c2.08,0.72,2.65,3.26,4.08,5.05
		c1.52,1.89,3.1,3.75,4.59,5.64c1.35,1.71,2.41,3.74,3.69,5.55c1.36,1.92,2.71,3.84,3.77,5.86c-0.52,1.09-1.22,1.66-2.85,1.35
		c-2.35-3.27-5.12-6.7-7.9-10.1c-2.89-3.54-5.48-7.29-8.33-10.86c-2.71-3.39-5.42-6.82-7.38-10.4c-1.23-0.12-1.69,0.48-1.91,0.95
		c-1.15,2.4-3.04,3.93-5.39,5.01c-1.7,0.79-3.98,0.57-5.51-0.6c-0.49-0.38-0.93-0.82-1.29-1.13c0-0.83,0.26-1.64-0.04-2.05
		c-1.67-2.25-0.62-4.6,0.29-6.42c1.45-2.9,2.28-6.26,5.21-8.3c-1.75-5.34-4.77-9.54-9.04-13.07c-3.68,0.6-7.2-0.53-10.52-2.22
		c-2.49-1.27-4.82-2.87-7.18-4.39c-2.97-1.91-5.67-4.51-8.9-5.66c-3.86-1.39-6.38-4.42-9.76-6.31c-1.02-0.57-2.09-1.05-3.06-1.65
		c-1.05-0.65-1.81-1.01-2.9-0.19c-0.95,0.71-1.82,0.2-2.58-0.5c-0.92-0.21-1.28,0.95-2.32,0.8c-2.55-0.38-4.95,1.27-7.56,0.7
		c-1.65,1.1-3.52,0.62-5.31,0.77c-3,0.25-5.54-1.14-7.99-2.44c-1.65-0.88-2.51-2.81-3.34-4.55c-0.15-0.32-0.43-0.58-0.81-1.07
		c0-0.86,0-1.95,0-3.12c-1.86,0-3.58,0-5.16,0c-1.07-0.58-2-1.07-2.91-1.59c-2.94-1.66-4.41-4.28-4.58-7.56
		c-0.13-2.41-0.22-4.83,0.69-7.2c0.92-2.4,1.75-3.52,4.43-4.96c-0.87-1.96-2.15-3.35-4.1-4.47c-2.84-1.64-3.33-4.77-1.3-7.35
		c1.26-1.6,2.16-3.41,3.12-5.12c0.97-1.73,2.13-3.17,3.47-4.57c0.98,0,1.97,0,2.99,0c1.74,1.8,4.24,2.45,6.32,4.17
		c0.43,1.06,1.17,2.31,0.62,4.49c2.77-2.63,5.57-4.11,8.27-5.52c2.69-1.41,5.65-2.61,8.78-3.27c1.67-0.35,3.31-0.82,4.96-0.59
		c1.99,0.28,4.01,0.76,5.87,1.5c1.71,0.69,3.57,1.55,4.76,2.88c1.75,1.97,4.35,2.57,6.13,4.4c0.31,0.32,1.13,0.14,2.43,0.26
		c-1.35-1.35-2.51-2.11-3.08-3.18c-0.65-1.22-1.68-2.05-2.43-3.12c-2.1-2.98-4.31-5.93-6.04-9.13c-0.94-1.75-1.85-3.56-3.06-5.07
		c-2.18-2.72-3.14-5.97-4.38-9.08c-0.52-1.3-0.23-2.92-0.33-4.72c0.63-0.35,1.4-0.78,2.18-1.21c-0.13-0.16-0.26-0.33-0.4-0.49
		c1.09,0,2.18,0,3.24,0c2.09,1.25,3.55,3.04,5.13,4.89c3.2,3.75,5.86,7.82,8.66,11.83c0.95,1.36,1.5,2.89,2.29,4.3
		c1.17,2.06,2.25,4.2,4.06,5.83c0.73-0.36,0.56-1.14,0.39-1.56c-2.11-5.42-3.32-11.12-5.07-16.65c-0.53-1.69-0.35-3.52-0.71-5.29
		c-0.35-1.7-1.25-3.38-0.99-5.28c0.24-1.72,0.05-3.49,0.05-5.23c0.6-0.98,1.67-1.33,2.85-1.78c4.3,2.96,7.66,6.77,9.35,12.27
		c1.32,4.29,3.19,8.43,4.48,12.77c0.24,0.79,0.58,1.55,0.55,2.38c-0.03,0.91,0.7,1.17,1.21,1.63c0.59-0.65,0.29-1.43,0.29-2.13
		c0.03-4.87,0.02-9.75,0.02-14.62c0-2.5,0.1-5-0.03-7.5c-0.12-2.33,1.48-4.44,0.75-6.59c0.58-0.99,1.06-1.8,1.6-2.71
		c1.1,0,2.19,0,3.5,0c2.65,2.93,4.61,6.43,5.48,10.62c0.81,3.87,1.94,7.68,3.08,11.47c1.04,3.46,2.02,6.93,2.98,10.4
		c0.4,1.43,0.76,2.96,1.12,4.38c1.09,4.34,2.79,8.63,2.5,13.22c-0.1,1.64,0.64,2.99,1.1,4.43c0.81,2.57,1.51,5.15,2.02,7.81
		c0.39,2,1.08,4,1.81,5.97c1.87,5,4.95,9.43,6.58,14.54c0.43,1.34,0.92,2.91,1.91,3.62c0.28,1.15-0.9,1.22-0.65,1.98
		c0.11,0.21,0.16,0.52,0.33,0.6C353.86,162.47,356.26,165.04,359.5,166.35c0.66,2.23,2.48,3.9,7.23,6.54
		c1.39-1.95,1.79-3.72,1.48-6.55c-1.96-1.81-4.11-2.23-6.31-0.56C361.09,166.4,360.31,166.14,359.5,166.35z M255.58,131.71
		c2.61,0.37,4.88-0.64,7.1-1.78c2.23-1.15,4.48-2.13,7.08-1.94c0.59,0.04,1.35,0.1,1.77-0.21c1.17-0.85,2.22-0.84,3.34-0.03
		c1.15,0.84,2.51-0.14,3.84,0.72c3.34,2.16,6.73,4.12,8.11,8.19c0.29,0.86,0.94,1.61,1.35,2.29c0,1.6,0,3.09,0,4.51
		c-2.66,2.48-4.89,5.31-7.97,7.22c-2.91,1.8-5.99,3.27-9.4,3.51c-3.88,0.28-7.82-0.29-11.51,1.04c-1.21,0.35-1.04,1.3-1.05,2.17
		c1.6,2.38,3.92,3.84,6.8,5.15c3.61-0.5,7.61,0.18,11.7-0.65c3.72-0.76,7.72-0.17,11.59-0.15c0.47,0,0.91,0.13,1.38,0.27
		c4.34,1.31,8,3.85,11.57,6.46c3.22,2.35,6.04,5.24,9.26,7.6c3.22,2.36,6.58,4.55,10.91,4.48c1.2-0.02,2.44,0.68,3.62,1.15
		c1.15,0.46,0.29,1.87,1.03,2.51c3.23,0.58,4.99,3.31,7.03,5.27c2.32,2.21,3.82,5.34,5.7,8.03c1.64,2.36,2.74,5.28,5.51,6.91
		c1.31-3.89,3.45-7.24,5.83-10.41c1.23-1.64,3.04-2.82,3.94-4.76c3.68-2.17,6.13-5.68,9.22-8.51c0.59-0.54,1.53-0.95,1.42-2.21
		c-5.74-5.14-10.43-11.52-16.01-15.91c-0.89-2.45-1.34-4.29-2.2-5.91c-0.82-1.54-1.93-3.05-2.61-4.55
		c-0.69-1.51-1.71-2.87-2.22-4.31c-0.58-1.65-1.34-3.21-2.04-4.79c-1.46-3.31-2.43-6.75-3.49-10.19c-0.86-2.8-1.29-5.69-2.05-8.5
		c-0.57-2.13-1.21-4.29-1.59-6.48c-0.61-3.47-1.79-6.77-2.69-10.15c-1.08-4.04-2.42-8.01-3.48-12.07c-0.48-1.83,0.1-3.92-0.75-5.26
		c-1.17-1.82,0.39-4.01-1.3-5.49c0.38-2.1-0.67-4.01-0.93-6.02c-0.25-1.92-0.58-4.35-3.3-5.02c-0.53,3.19-1.27,6.22-1.12,9.41
		c0.17,3.62-0.03,7.25,0.06,10.87c0.08,3.53-0.03,7.03,0.59,10.59c0.64,3.64,0.15,7.48,0.13,11.23c0,0.22-0.16,0.43-0.24,0.64
		c-0.27,0.27-0.53,0.53-0.83,0.83c-0.7,0-1.44,0-2.39,0c-2.54-2.56-3.74-5.98-4.76-9.47c-0.98-3.35-1.86-6.73-2.75-10.11
		c-0.86-3.27-1.78-6.53-2.49-9.84c-0.8-3.73-2.46-6.62-5.31-8.56c0.33,3.34-0.18,6.57,0.66,9.89c0.77,3.06,1.65,6.1,2.29,9.18
		c0.65,3.1,1.72,6.08,2.47,9.14c0.57,2.34,1.17,4.73,1.86,7.07c0.65,2.21,1.63,4.57,0.84,7.03c-0.48,0.33-0.7,1.07-1.89,0.89
		c-0.61-0.64-1.71-1.4-2.26-2.45c-2.31-4.35-5.76-7.97-7.73-12.54c-0.78-1.81-2.15-3.35-3.18-5.06c-2.08-3.45-4.61-6.59-6.82-9.94
		c-1.14-1.72-2.55-2.96-3.94-4.63c-0.85,3.15,0.07,5.77,1.34,7.92c2.02,3.41,4,6.84,5.92,10.31c0.96,1.74,2.24,3.31,3.18,5.06
		c2.17,4.03,5.46,7.32,7.42,11.54c0.75,1.62,1.66,3.38,2.95,4.79c0.22,0.24,0.42,0.49,0.65,0.76c-0.81,0.38-1.54,0.72-2.3,1.07
		c-1.47-0.91-2.97-1.55-3.87-3.41c-0.67-1.37-2.22-2.47-3.7-3.44c-3.14-2.05-6.66-3.3-9.96-4.99c-3.01-1.54-6.71-1.59-9.97-0.61
		c-4.64,1.4-9.23,3.06-13.4,5.66c-2.15,1.34-4.28,2.7-5.95,4.61C254.12,129.01,254.22,129.93,255.58,131.71z M260.17,152
		c4.01,0,7.59,0,11.17,0c0.5,0,1.06,0.15,1.48-0.03c2.33-0.99,4.83-1.78,6.88-3.19c2.12-1.46,3.79-3.56,5.51-5.24c0-1,0-1.74,0-2.43
		c-8.2-12.27-18.72-10.53-25.31-6.12c1.19,1.19,2.4,2.4,3.32,3.32C265.29,144.83,263.14,146.66,260.17,152z M253.48,148.89
		c-3.82,0.7-4.92-2.12-5.85-3.42c-1.96-4.12,1.37-6.09,1.75-8.73c-0.73-0.66-1.66-0.45-1.97-1.14c-3.17,2.31-5.06,5.23-3.94,9.35
		c0.77,2.66,2.73,4.47,4.68,6.31c1.03-0.35,1.76,0.55,2.66,0.71c1.09,0.18,2.23,0.04,3.28,0.04c3.29-2.05,4.98-4.07,6.7-7.34
		c0.46-0.87,0.55-1.67,0.41-2.44c-0.63-3.5-4.72-6.7-8.46-6.71c-0.17,0-0.33,0.29-0.5,0.45c0,0.37-0.05,0.75,0.37,1.01
		c0.45,0,0.94,0,1.41,0C258.54,140.36,258.84,144.27,253.48,148.89z M341.65,209.3c-1.51-3.39-3.42-6.07-5.54-8.96
		c-2.01,3.54-3.26,6.97-4.36,10.45c0.93,1.21,1.3,2.88,2.94,3.46C338.33,214.51,339.32,211.09,341.65,209.3z M249.62,125
		c-0.99,0-1.99-0.07-2.97,0.02c-0.89,0.08-1.92-0.41-2.85,0.63c1.91,2.59,3.8,5.14,5.92,8.01c1.6-3.41,2.34-6.82,4.24-9.81
		C251.84,123.63,251.84,123.63,249.62,125z M250.27,138.61c-0.5,0.5-1.11,1.11-1.73,1.73c-0.18,1.69-0.13,3.33,0.99,4.84
		c1.27,0,2.6,0,3.68,0c0.79-0.68,1.44-1.25,2.06-1.77c-0.13-0.91,0.28-1.79-0.14-2.37C253.38,140.16,251.85,139.4,250.27,138.61z
		 M248.11,123.5c1.39,0.16,2.42-0.52,3.62-1.45c-1.76-1.83-1.66-4.81-4.03-6.15c-1.02,0.5-0.72,1.57-1.37,2.04
		c1.35,1.34,0.25,3.06,0.73,4.5C247.44,122.8,247.78,123.16,248.11,123.5z M246.09,124.21c0.29-1.19,0.2-2.43,0.05-3.72
		c-2.11-0.02-1.94,1.83-2.8,2.68C243.96,124.21,244.85,124.4,246.09,124.21z M357.81,196.93c0.32-0.96,0.27-1.87,0.01-2.86
		c-0.39,0-0.73,0-1.14,0c-0.32,0.96-0.27,1.87-0.01,2.86C357.07,196.93,357.4,196.93,357.81,196.93z M252.25,119.57
		c0.44,0.73,0.44,0.73,1.4,1.4c0.02-0.68,0.42-1.41-0.21-1.91C252.85,118.92,252.39,118.92,252.25,119.57z"/>
	<path class="st0" d="M106.79,142.98c-0.72-1.97-3.03-2.23-4.21-3.73c-2.75-0.29-4.43-2.23-6.21-4.01c-1.15-1.15-2.12-2.68-3.5-3.34
		c-1.41-0.68-1.5-2.54-3.29-2.79c-1.06-0.15-0.88-1.83-1.83-2.57c-1.37-1.06-2.48-2.46-3.75-3.66c-2.5-2.35-4.87-4.81-7.57-6.99
		c-3.99-3.21-7.12-7.34-10.15-11.48c-0.13-0.18-0.38-0.27-0.74-0.52c-19.35,15.74-38.5,31.84-58.94,45.77
		c-1.35,0.41-1.92-0.29-2.54-0.99c0-0.69,0-1.43,0-2.55c0.96-0.9,2.06-2.11,3.34-3.08c3.41-2.57,7.09-4.82,10.32-7.59
		c3.38-2.9,7.34-4.98,10.58-8.05c2.15-2.04,4.94-3.22,7.33-4.97c1.16-0.85,2.2-1.83,3.35-2.67c0.39,0,0.76,0,1.27,0
		c4.71-4.48,10.4-7.8,15.65-11.71c2.92-2.18,6.02-4.13,9.09-6.11c2.46-1.59,4.86-3.43,8.05-3.17c0.71,0.06,0.82-0.97,1.67-0.72
		c1.39,1.34,3.56,1.86,4.47,3.63c2.76-1.04,4.55-3.17,6.92-4.57c3.11-1.83,6.18-3.79,9.41-5.41c4.62-2.31,8.91-5.14,13.15-8.04
		c0.93-0.63,1.3-2.03,2.18-2.8c3.45-3.02,5.99-6.87,9.16-10.15c1.23-1.28,2.38-2.89,3.38-4.52c1.12-1.81,2.41-3.63,4.11-5.09
		c1.46-1.26,2.77-2.67,3.82-4.38c0.71-1.15,2.29-1.72,3.3-2.72c5.07-5,10.1-10.05,15.12-15.1c0.58-0.58,1.17-1.08,1.42-2.04
		c0.21-0.81,1.46-1.25,1.5-2.36c2.62-0.76,3.49-3.74,5.92-4.71c0.75-0.3,1.17-0.89,1.66-1.4c3.97-4.12,8.41-7.64,13.08-10.93
		c2.03-1.43,4.02-2.99,5.99-4.52c3.75-2.91,7.66-5.44,11.99-7.35c0.21-0.09,0.36-0.34,0.56-0.55c1.22,0,2.46,0,3.85,0
		c0.23,0.29,0.54,0.67,0.98,1.22c0.43,2.08-0.5,3.81-1.87,5.68c-2.58,3.52-5.69,6.52-8.88,9.38c-2.22,1.98-4.28,4.25-6.98,5.67
		c-0.18,0.1-0.13,0.64-0.23,1.16c3.12-0.88,5.74-2.52,8.6-3.55c4.78-1.73,9.66-3.19,14.29-5.32c3.25-0.01,6.24-1.69,9.5-1.48
		c0.86,0.06,1.33-0.44,2.17-0.92c0.87,1.07,2.23,0.91,3.51,0.87c0.58,0.94,1.07,1.74,1.6,2.6c-1.05,0.53-0.38,1.69-0.87,2.57
		c-2.43,1.93-5.41,3.06-8.12,4.65c-2.81,1.66-5.9,2.68-8.73,4.33c-2.66,1.56-5.85,2.23-8.94,4.41c2.41,0.12,4.23,0.68,6.06-0.41
		c0.47-0.28,1.2-0.19,1.81-0.13c5.43,0.48,10.76-1.19,16.19-0.78c1.62,0.12,3.25,0.07,4.87,0c1.47-0.06,2.64,1.4,4.13,0.66
		c0.95,0.97,1.82,1.87,2.71,2.78c0,0.7,0,1.45,0,2.2c-0.53,0.53-1.16,0.99-1.58,1.6c-1.78,2.59-4.64,3.69-7.36,3.87
		c-3.74,0.25-7.24,1.59-10.99,1.78c-1.44,0.07-2.98,0.69-4.33,0.58c-0.54,0.48-0.9,0.81-1.25,1.13c3.27,1.75,6.31,3.74,9.16,6.1
		c1.98,1.64,3.91,3.29,5.76,5.08c2.79,2.7,4.54,5.98,5.85,9.58c0.41,1.12,0.07,2.19,0.26,3.3c0.88,0.98,2.16,1.3,3.3,1.89
		c3.68,1.89,5.77,4.88,5.7,9.25c-0.9,0.79-1.82,1.61-3.01,2.66c-1.78,0-4.02,0-6.22,0c-0.96,1.1-1.3,2.01-2.03,5.39
		c-1.05,2.04-3.07,2.85-4.68,4.08c-0.86,0.66-1.94,1.22-3.29,1.12c-2.48-0.18-4.98-0.05-7.42-0.05c-0.67,0.53-0.21,1.22-0.57,2.06
		c-2.52,2.88-5.94,4.61-10.08,4.64c-1.27,0.01-2.16,0.95-3.44,0.85c-1.02-0.07-2.12-0.36-3.15,0.55c-0.5,0.44-1.67,0.07-2.53,0.16
		c-1.17,0.13-2.5-0.51-3.47,0.69c-0.1,0.13-0.5-0.03-0.71,0.06c-1.46,0.62-2.52-1.63-4.09-0.5c-1.42,1.02-3.11,0.36-4.67,0.46
		c-1.49,0.1-3.08,0.33-4.48-0.03c-5.37-1.38-10.82-0.77-16.2-0.6c-7.77,0.25-14.81,2.84-20.44,8.49c-3.27,3.28-6.86,6.18-10.5,9.03
		c-1.08,0.84-1.96,1.92-2.92,2.88c1.2,2.74,5.45,2.48,6.09,6.16c-4.51,3.16-8.14,7.2-12,11c-1.92,1.88-4.04,3.57-5.95,5.41
		c-2.32,2.23-4.6,4.57-7.01,6.68c-4,3.51-7.65,7.37-11.6,10.89c-3.26,2.9-6.66,5.65-9.99,8.47c-4.48,3.8-8.78,7.78-13.17,11.66
		c-4.53,4-8.81,8.32-13.83,11.77c-0.86,0.59-1.51,0.63-2.55,0.07c0.83-1.19,0.66-2.91,2.62-3.42c0.73-0.19,1.3-1.09,1.91-1.7
		c1.6-1.58,3.2-3.17,4.77-4.77c1.39-1.41,2.77-2.92,4.27-4.11c5.28-4.17,9.41-9.53,14.53-13.79c3.53-2.93,6.49-6.43,10.01-9.31
		c3.16-2.58,5.83-5.69,8.99-8.19c2.53-1.99,4.74-4.25,7.04-6.46C103.7,145.71,105.87,145.1,106.79,142.98z M193.46,7.3
		c-1.18-0.13-1.54,0.5-2.03,0.76c-3.4,1.8-6.95,3.3-10.03,5.76c-2.02,1.61-4.12,3.21-6.29,4.66c-2.68,1.79-5.26,3.68-7.78,5.71
		c-2.82,2.27-5.94,4.18-8.35,6.95c-0.07,0.08-0.21,0.08-0.32,0.12c-1.6,0.55-2.67,1.87-3.55,3.11c-2.71,3.85-6.01,7.19-8.91,10.87
		c-1.79,2.27-3.78,4.48-5.65,6.73c-1.4,1.69-3.15,3.15-4.22,4.99c-1.04,1.77-2.59,2.91-3.81,4.4c-1.23,1.5-2.42,3.02-3.72,4.45
		c-1.26,1.38-2.64,2.66-3.96,3.99c-1.24,1.24-2.48,2.46-3.71,3.71c-1.3,1.33-2.75,2.56-3.82,4.05c-0.99,1.38-2.56,1.99-3.59,3.29
		c-1.16,1.46-2.6,2.69-3.94,4c-1.71,1.68-3.35,3.32-5.68,4.37c-1.63,0.73-3.28,1.9-4.7,3.1c-4.39,3.68-9.51,6.31-13.9,9.98
		c-0.68,0.57-1.81,0.61-2.01,1.9c0.64,0.76,1.32,1.51,2.31,2.08c2.13,1.21,4.28,2.43,6.29,3.79c1.66,1.12,3.28,2.32,4.99,3.38
		c4.28,2.67,9.13,4.47,12.72,8.21c2.2,0.63,3.15,3.39,5.74,3.33c1.56-0.41,2.74-1.34,3.85-2.48c2.79-2.87,5.71-5.6,8.45-8.52
		c2.6-2.76,5.53-5.1,8.7-7.11c4.11-2.61,8.57-4.44,13.55-4.36c3.78,0.06,7.53-0.25,11.35,0.57c2.04,0.44,4.17,1.4,6.41,0.9
		c1.33,1.62,3.38,0.42,5.09,1.34c1.45,0.78,3.65,0.16,5.38,0.16c0.4-0.31,0.71-0.5,0.97-0.75c1.37-1.31,3.2-0.67,4.79-1.06
		c2.95-0.74,5.82-1.92,8.96-1.99c1.63-0.03,3.36-0.43,4.87-0.89c1.97-0.61,4.42-0.97,5.48-3.28c-1.04-1.12-2.28-1.58-3.79-1.82
		c-2.68-0.43-5.36-0.95-7.98-1.56c-2.65-0.63-5.5-0.98-7.87-2.7c-1.19-0.86-2.71-1.28-3.93-1.83c-0.63-1.24-1.21-2.38-1.78-3.5
		c-0.47-5.85,2.01-11.11,3.2-16.62c0.49,0.08,0.91-0.14,1.26,0.46c0.18,3.69-0.69,7.42-1.34,10.91c0.48,2.73,2.05,4.7,4.15,5.83
		c4.75,2.55,9.66,4.82,15.2,6.03c0-0.63,0.11-1.13-0.02-1.57c-1.13-3.9-1.07-4.92,0.72-8.46c1.43-2.83,3.41-4.94,6.89-4.93
		c0.95-1.23,2.54-0.42,3.93-1.09c-1.4-2.1-2.67-4.07-4.01-5.99c-0.42-0.61-0.95-1.26-1.59-1.57c-3.86-1.92-7.65-4.11-12.17-4.11
		c-1.1,0-2.24,0.06-3.3-0.2c-2.98-0.73-3.57-0.47-6.6,0.1c-2.18,0.4-3.77,1.84-5.81,2.36c-0.57-0.42-1.27-0.73-1.32-1.9
		c0.23-1.31,0.89-2.77,2.24-3.61c1.05-0.65,2.38-1.16,3.6-1.18c6.28-0.13,12.6-0.46,18.57,2.19c2.46,1.09,5.35,1.72,6.89,4.04
		c1.47,2.21,4.17,3.78,4.05,6.92c0.9,0.4,0.8,1.43,1.25,2.12c1.36,2.08,3.14,3.73,4.85,5.47c0.14,0.14,0.44,0.14,0.99,0.3
		c0.21-0.4,0.51-0.94,1.2-2.22c0.54-1.87-1.49-4.46-0.91-6.88c-1.92-4.61-4.73-8.16-7.99-11.35c-1.02-1-2.43-1.63-3.34-2.7
		c-1.53-1.81-3.53-3.06-5.37-4.37c-2.85-2.04-6.13-3.47-9.85-3.32c-1.75,0.07-3.5,0.01-5.25,0.01c-1.97-2.26-5.09-0.82-7.32-2.25
		c-3.45,0.53-6.77-0.84-10.19-0.72c-1.51,0.05-2.75-0.42-3.92-1.26c0.03-0.25,0.06-0.49,0.12-1.02c1.16,0,2.57-0.39,3.56,0.08
		c2.27,1.09,4.59,0.71,6.85,0.61c3.95-0.17,7.74,1.38,11.69,0.82c0.23-0.03,0.52-0.04,0.72,0.07c2.81,1.54,5.83,0.25,8.72,0.68
		c3.4-1.52,7.2-1.08,10.72-2.16c1.41-0.43,3.05-0.54,4.55-0.72c1.67-0.19,3.28-0.63,4.93-0.85c1.41-0.19,2.62-1.26,4.05-0.71
		c0.9-1.22,2.19-1.88,2.74-3.15c-1.26-1.78-2.89-2.3-4.81-2.16c-4.39,0.31-8.79-0.42-13.21,0.64c-2.89,0.69-6.09-0.3-9.04,0.86
		c-5.92-0.41-11.75,1.19-17.69,0.79c-2.9-0.2-5.85-0.32-8.69,0.69c-0.15,0.06-0.41-0.18-0.63-0.28c-0.05-0.59-0.24-1.19,0.17-1.88
		c5.05-0.57,10.18-1.15,15.35-1.73c0.18-1.04,0.11-2.31,1.29-2.81c3.1-1.32,5.96-3.17,9.04-4.41c2.89-1.17,5.76-2.39,8.68-3.49
		c2.96-1.12,5.38-3.22,8.4-4.17c0.68-0.21,1.58-0.82,1.11-2.04c-1.89-0.4-3.69,0-5.57,0.54c-2.69,0.76-5.41,1.39-8.09,2.19
		c-4.12,1.22-8.22,2.45-12.28,3.86c-4.58,1.6-9.17,3.21-13.55,5.29c-3.87,1.84-8.12,2.77-11.75,5.16c-0.37,0.24-1.2,0.3-1.74-0.18
		c0.91-2.08,3.05-2.68,4.76-3.34c1.98-0.77,3.92-1.46,5.61-2.71c0-0.57,0-1.06,0-1.44c0.83-1.4,2.39-1.79,3.36-2.81
		c2.89-3.05,6.55-5.23,9.27-8.45c0.32-0.38,0.64-0.83,1.07-1.05c3.82-1.95,5.47-5.83,8.01-8.81C194.03,7.95,193.7,7.58,193.46,7.3z
		 M67.78,103.76c2.38,1.89,4.02,4.64,6.88,6.03c3.33,3.92,7.96,6.24,11.89,9.42c3.64,2.94,7.29,5.91,10.81,8.97
		c3.02,2.63,6.21,5.03,9.34,7.5c1.58,1.24,3.15,2.98,5.66,2.82c1.85-2.27,5.09-3.19,6.5-6.24c-0.94-0.47-1.93-0.84-2.73-1.37
		c-6.79-4.46-13.48-9.05-20.31-13.45c-2.86-1.84-5.71-3.71-8.57-5.56c-3-1.95-5.69-4.32-8.54-6.46c-2.09-1.56-4.17-3.39-5.3-5.72
		c-1.98,0.62-3.92,1.36-5.62,2.49C67.78,102.71,67.78,103.2,67.78,103.76z M203.45,85.59c0.93,3.62,3.39,5.63,6.74,7.14
		c1.89,0,4.13,0,6.39,0c1.18-0.84,1.99-2.01,2.53-3.35c0.95-2.95-0.81-5.34-2.56-6.96c-2.33-2.16-5.6-3.06-9.17-2.24
		c-0.34,1.35-2.18,1.09-3.05,2.44C204.59,83.68,203.56,84.59,203.45,85.59z M226.03,82.32c0.32,0.58-1.09,0.64-0.6,1.23
		c1.52,0,2.93,0,4.32,0c0-0.69,0-1.18,0-0.89c-1.58-1.59-2.76-2.79-3.69-3.73c-0.51,0.51-1.19,1.19-1.74,1.74
		C224.93,80.79,225.73,81.2,226.03,82.32z"/>
	<path class="st0" d="M238.1,81.15c1.93-0.08,3.76-0.88,5.71,0.25c1.03,0.59,2.69,0.11,4.06,0.11c2.11,0,4.22,0,6.44,0
		c1.28,1.7,1.47,3.75,1.65,5.7c0.28,3-0.63,5.93-1.55,8.71c-1.03,3.12-2.24,6.15-2.2,9.38c-1.91,0.81-1.4-1.03-1.95-1.57
		c-0.45-0.45-0.44-1.69-0.22-2.45c1.01-3.48,1.68-6.99,1.46-10.63c1.22-1.9,0.61-3.96,0.77-6.01
		C247.19,84.39,242.45,83.61,238.1,81.15z"/>
	<path class="st0" d="M240.01,65.75c1.24,0.02,2.44-0.32,3.1,1.1c-1.84,4.46-6.47,5.48-9.7,8.18c-0.45-0.45-0.61-0.53-0.61-0.62
		c-0.03-0.49-0.01-0.98-0.01-1.53C235.12,70.57,237.5,68.23,240.01,65.75z"/>
	<path class="st0" d="M264.05,91.07c0.46,2.29,0.07,3.92-0.98,5.52c-1.59,2.43-3,4.99-4.53,7.46c-0.31,0.51-0.8,0.95-1.83,0.42
		c1.33-3.96,3.85-7.45,5.89-11.96C262.64,92.48,263.26,91.87,264.05,91.07z"/>
	<path class="st0" d="M239.63,77.79c-0.81-0.52-1.32-0.85-1.55-1c-0.15-0.79,0.08-1.06,0.34-1.33c2.34-2.45,5.33-2.29,8.33-2.15
		c0.13,2.43-0.04,2.48-1.87,2.99C243.1,76.79,241.15,76.66,239.63,77.79z"/>
	<path class="st0" d="M254.38,181.02c-3.77-2.36-2.66-5.59-2.91-8.41c1.16-0.84,2.03-0.38,2.91,0.66
		C254.38,175.56,254.38,177.96,254.38,181.02z"/>
	<path class="st0" d="M247.14,169.1c-2.2,3.58-2.57,7.36-4.03,11.04c-0.6-1.11-0.98-1.81-1.36-2.52c1.06-2.8,2.03-5.66,3.85-8.11
		C245.9,169.11,246.28,169.32,247.14,169.1z"/>
	<path class="st0" d="M237.29,99.45c0-0.94,0-1.43,0-1.87c0.48-0.6,0.58,0.07,0.84,0.17c3.44,1.33,3.83,4.41,4.27,7.46
		c0.01,0.07-0.16,0.17-0.38,0.39c-1.51-0.61-1.8-1.89-1.77-3.49C239.31,101.26,238.3,100.35,237.29,99.45z"/>
	<path class="st0" d="M215.5,85.99c0,0.9,0,2.14,0,3.39c-0.54,0.49-1.12,0.96-0.72,1.84c-1.57,0-2.81,0-4.2,0
		c-0.74-0.82-1.57-1.74-2.55-2.82c-0.07-0.66,0.28-1.73-0.9-2.1c0.72-1.74,1.52-3.05,2.81-4.04
		C212.6,81.98,214.42,83.19,215.5,85.99z M212.45,87.43c0.21-1.45-0.02-2.37-1.2-2.81c-0.92,0.77-1.44,1.62-0.71,2.81
		C211.11,87.43,211.68,87.43,212.45,87.43z"/>
</g>
</svg>
